<svg xmlns="http://www.w3.org/2000/svg" width="224.296" height="224.055" viewBox="0 0 224.296 224.055">
  <g id="data" transform="translate(0)">
    <path id="Path_2" data-name="Path 2" d="M44.527,153.458a3.283,3.283,0,0,0,4.643-4.643L41.2,140.844l7.971-7.969a3.283,3.283,0,1,0-4.643-4.643L34.235,138.523a3.282,3.282,0,0,0,0,4.643Zm0,0" transform="translate(-18.697 -71.735)" fill="#7d7d7d"/>
    <path id="Path_3" data-name="Path 3" d="M121.863,140.842l-7.971,7.971a3.283,3.283,0,1,0,4.643,4.643l10.293-10.293a3.281,3.281,0,0,0,0-4.641l-10.293-10.293a3.282,3.282,0,0,0-4.641,4.643Zm0,0" transform="translate(-63.458 -71.732)" fill="#7d7d7d"/>
    <path id="Path_4" data-name="Path 4" d="M78.5,154.189a3.282,3.282,0,0,0,4.256-1.855l8.086-20.585a3.282,3.282,0,1,0-6.109-2.4l-8.087,20.585A3.283,3.283,0,0,0,78.5,154.189Zm0,0" transform="translate(-42.94 -71.732)" fill="#7d7d7d"/>
    <path id="Path_5" data-name="Path 5" d="M40.8,224.781H62.912a3.283,3.283,0,0,0,0-6.566H40.8a3.283,3.283,0,0,0,0,6.566Zm0,0" transform="translate(-21.08 -122.838)" fill="#7d7d7d"/>
    <path id="Path_6" data-name="Path 6" d="M157.674,218.215h-38.88a3.283,3.283,0,0,0,0,6.566h38.88a3.283,3.283,0,1,0,0-6.566Zm0,0" transform="translate(-64.908 -122.838)" fill="#7d7d7d"/>
    <path id="Path_7" data-name="Path 7" d="M40.8,256.387h9.42a3.283,3.283,0,0,0,0-6.566H40.8a3.283,3.283,0,0,0,0,6.566Zm0,0" transform="translate(-21.08 -140.598)" fill="#7d7d7d"/>
    <path id="Path_8" data-name="Path 8" d="M180.13,249.82a3.283,3.283,0,0,0,0,6.566h5.736a3.283,3.283,0,1,0,0-6.566Zm0,0" transform="translate(-99.374 -140.597)" fill="#7d7d7d"/>
    <path id="Path_9" data-name="Path 9" d="M120.054,253.1a3.283,3.283,0,0,0-3.282-3.282H88.595a3.283,3.283,0,0,0,0,6.566h28.178A3.283,3.283,0,0,0,120.054,253.1Zm0,0" transform="translate(-47.938 -140.598)" fill="#7d7d7d"/>
    <path id="Path_10" data-name="Path 10" d="M213.7,253.1a3.283,3.283,0,0,0,3.282,3.284H227.73a3.283,3.283,0,1,0,0-6.566H216.985A3.283,3.283,0,0,0,213.7,253.1Zm0,0" transform="translate(-120.083 -140.598)" fill="#7d7d7d"/>
    <path id="Path_11" data-name="Path 11" d="M168.683,155.844h11.334a3.283,3.283,0,1,0,0-6.566H168.683a3.283,3.283,0,1,0,0,6.566Zm0,0" transform="translate(-92.94 -84.101)" fill="#7d7d7d"/>
    <path id="Path_12" data-name="Path 12" d="M223.53,155.844h69.153a3.283,3.283,0,0,0,0-6.566H223.53a3.283,3.283,0,1,0,0,6.566Zm0,0" transform="translate(-123.76 -84.101)" fill="#7d7d7d"/>
    <path id="Path_13" data-name="Path 13" d="M321.479,182.246H293.466a3.283,3.283,0,0,0,0,6.566h28.013a3.283,3.283,0,0,0,0-6.566Zm0,0" transform="translate(-163.059 -102.626)" fill="#7d7d7d"/>
    <path id="Path_14" data-name="Path 14" d="M257.138,182.246h-9.629a3.283,3.283,0,0,0,0,6.566h9.629a3.283,3.283,0,0,0,0-6.566Zm0,0" transform="translate(-137.235 -102.626)" fill="#7d7d7d"/>
    <path id="Path_15" data-name="Path 15" d="M168.683,188.812h23.59a3.283,3.283,0,0,0,0-6.566h-23.59a3.283,3.283,0,1,0,0,6.566Zm0,0" transform="translate(-92.94 -102.626)" fill="#7d7d7d"/>
    <path id="Path_16" data-name="Path 16" d="M124.643,281.16H102.53a3.282,3.282,0,1,0,0,6.564h22.113a3.282,3.282,0,0,0,0-6.564Zm0,0" transform="translate(-55.768 -158.208)" fill="#7d7d7d"/>
    <path id="Path_17" data-name="Path 17" d="M57.787,281.16H40.8a3.282,3.282,0,1,0,0,6.564H57.787a3.282,3.282,0,1,0,0-6.564Zm0,0" transform="translate(-21.08 -158.208)" fill="#7d7d7d"/>
    <path id="Path_18" data-name="Path 18" d="M207.459,281.16H178.572a3.282,3.282,0,1,0,0,6.564h28.888a3.282,3.282,0,1,0,0-6.564Zm0,0" transform="translate(-98.498 -158.208)" fill="#7d7d7d"/>
    <path id="Path_19" data-name="Path 19" d="M313.426,242.668h-15.8a3.283,3.283,0,0,0,0,6.566h15.8a3.283,3.283,0,0,0,0-6.566Zm0,0" transform="translate(-165.399 -136.578)" fill="#7d7d7d"/>
    <path id="Path_20" data-name="Path 20" d="M396.259,249.234h22.3a3.283,3.283,0,1,0,0-6.566h-22.3a3.283,3.283,0,0,0,0,6.566Zm0,0" transform="translate(-220.82 -136.578)" fill="#7d7d7d"/>
    <path id="Path_21" data-name="Path 21" d="M364.25,242.668h-5.11a3.283,3.283,0,1,0,0,6.566h5.11a3.283,3.283,0,0,0,0-6.566Zm0,0" transform="translate(-199.961 -136.578)" fill="#7d7d7d"/>
    <path id="Path_22" data-name="Path 22" d="M297.63,330.893h15.8a3.282,3.282,0,1,0,0-6.564h-15.8a3.282,3.282,0,0,0,0,6.564Zm0,0" transform="translate(-165.399 -182.465)" fill="#7d7d7d"/>
    <path id="Path_23" data-name="Path 23" d="M396.259,330.893h22.3a3.282,3.282,0,1,0,0-6.564h-22.3a3.282,3.282,0,1,0,0,6.564Zm0,0" transform="translate(-220.82 -182.465)" fill="#7d7d7d"/>
    <path id="Path_24" data-name="Path 24" d="M359.142,330.893h5.11a3.282,3.282,0,1,0,0-6.564h-5.11a3.282,3.282,0,1,0,0,6.564Zm0,0" transform="translate(-199.964 -182.465)" fill="#7d7d7d"/>
    <path id="Path_25" data-name="Path 25" d="M313.426,405.988h-15.8a3.282,3.282,0,0,0,0,6.564h15.8a3.282,3.282,0,0,0,0-6.564Zm0,0" transform="translate(-165.399 -228.351)" fill="#7d7d7d"/>
    <path id="Path_26" data-name="Path 26" d="M418.558,405.988h-22.3a3.282,3.282,0,1,0,0,6.564h22.3a3.282,3.282,0,1,0,0-6.564Zm0,0" transform="translate(-220.82 -228.351)" fill="#7d7d7d"/>
    <path id="Path_27" data-name="Path 27" d="M364.25,405.988h-5.11a3.282,3.282,0,1,0,0,6.564h5.11a3.282,3.282,0,0,0,0-6.564Zm0,0" transform="translate(-199.961 -228.351)" fill="#7d7d7d"/>
    <path id="Path_28" data-name="Path 28" d="M209.851.5H14.448A14.465,14.465,0,0,0,0,14.948V173.782a14.464,14.464,0,0,0,14.448,14.446H26.8a3.282,3.282,0,0,0,0-6.564H14.448a7.89,7.89,0,0,1-7.882-7.882V161.329H126.16v5.657h-2.6a6.463,6.463,0,0,0-6.457,6.457v8.221H46.76a3.282,3.282,0,1,0,0,6.564H78.322V200H68.411A12,12,0,0,0,56.42,211.993v7.091a5.477,5.477,0,0,0,5.471,5.471H162.157a5.477,5.477,0,0,0,5.471-5.471v-7.091A12,12,0,0,0,155.637,200h-9.912v-4.15h60.686a6.462,6.462,0,0,0,6.455-6.457V187.85a14.468,14.468,0,0,0,11.181-14.068L224.3,14.946A14.46,14.46,0,0,0,209.851.5ZM123.667,153.514V137.779H206.3v15.735Zm9.058-22.3v-6.907h64.518v6.907Zm64.518,28.866v6.908H132.725v-6.908ZM84.886,188.228H117.1V189.4a6.462,6.462,0,0,0,6.457,6.455h15.6V200H84.886Zm70.752,18.34a5.431,5.431,0,0,1,5.425,5.425v6H62.984v-6a5.432,5.432,0,0,1,5.426-5.425ZM206.3,189.286H123.667V173.553H206.3Zm11.181-15.5a7.884,7.884,0,0,1-4.615,7.163v-7.5a6.463,6.463,0,0,0-6.457-6.455h-2.6v-5.657h13.675Zm0-19.017H212.76c.067-.371.108-17.1.108-17.1a6.464,6.464,0,0,0-6.457-6.457h-2.6v-6.907h2.6a6.465,6.465,0,0,0,6.457-6.457V101.9a6.465,6.465,0,0,0-6.457-6.457H187.87a3.283,3.283,0,0,0,0,6.566H206.3V117.74H123.667V102h43.777a3.283,3.283,0,0,0,0-6.566H123.557A6.464,6.464,0,0,0,117.1,101.9v15.954a6.464,6.464,0,0,0,6.457,6.457h2.6v6.907h-2.6a6.464,6.464,0,0,0-6.457,6.457s.041,16.724.108,17.1H6.565V45.153H217.483Zm0-116.177H6.807V14.946a7.89,7.89,0,0,1,7.882-7.88H209.6a7.89,7.89,0,0,1,7.882,7.882Zm0,0" transform="translate(0 -0.5)" fill="#7d7d7d"/>
    <path id="Path_29" data-name="Path 29" d="M42.906,29.262a9.634,9.634,0,1,0,9.634,9.633A9.643,9.643,0,0,0,42.906,29.262Zm0,12.7a3.068,3.068,0,1,1,3.068-3.068A3.072,3.072,0,0,1,42.906,41.963Zm0,0" transform="translate(-18.697 -16.662)" fill="#7d7d7d"/>
    <path id="Path_30" data-name="Path 30" d="M98.892,29.262a9.634,9.634,0,1,0,9.633,9.633A9.645,9.645,0,0,0,98.892,29.262Zm0,12.7a3.068,3.068,0,1,1,3.068-3.068A3.071,3.071,0,0,1,98.892,41.963Zm0,0" transform="translate(-50.155 -16.662)" fill="#7d7d7d"/>
    <path id="Path_31" data-name="Path 31" d="M154.878,29.262a9.634,9.634,0,1,0,9.634,9.633A9.643,9.643,0,0,0,154.878,29.262Zm0,12.7a3.068,3.068,0,1,1,3.068-3.068A3.072,3.072,0,0,1,154.878,41.963Zm0,0" transform="translate(-81.616 -16.662)" fill="#7d7d7d"/>
  </g>
</svg>
